PathFileType	4	(X/Y/Z)	Patient4_TMGait_0pt3_02_right_05.trc.trc
DataRate	CameraRate	NumFrames	NumMarkers	Units	OrigDataRate	OrigDataStartFrame	OrigNumFrames
47.619047619048	47.619047619048	5	33	mm	47.619047619048	89	       141
Frame#	Time	Sacral			L.Shoulder			Chest			R.Shoulder			Neck			R.ASIS			L.ASIS			R.Thigh.Superior			R.Thigh.Lateral			R.Thigh.Inferior			R.Patella			L.Thigh.Superior			L.Thigh.Lateral			L.Thigh.Inferior			L.Patella			L.Shank.Superior			L.Shank.Lateral			L.Shank.Inferior			R.Shank.Superior			R.Shank.Lateral			R.Shank.Inferior			R.Heel			R.Midfoot.Superior			R.Midfoot.Lateral			R.Toe			L.Heel			L.Midfoot.Lateral			L.Midfoot.Superior			L.Toe			L.Elbow			L.Wrist			R.Elbow			R.Wrist			
		X1	Y1	Z1	X2	Y2	Z2	X3	Y3	Z3	X4	Y4	Z4	X5	Y5	Z5	X6	Y6	Z6	X7	Y7	Z7	X8	Y8	Z8	X9	Y9	Z9	X10	Y10	Z10	X11	Y11	Z11	X12	Y12	Z12	X13	Y13	Z13	X14	Y14	Z14	X15	Y15	Z15	X16	Y16	Z16	X17	Y17	Z17	X18	Y18	Z18	X19	Y19	Z19	X20	Y20	Z20	X21	Y21	Z21	X22	Y22	Z22	X23	Y23	Z23	X24	Y24	Z24	X25	Y25	Z25	X26	Y26	Z26	X27	Y27	Z27	X28	Y28	Z28	X29	Y29	Z29	X30	Y30	Z30	X31	Y31	Z31	X32	Y32	Z32	X33	Y33	Z33	

89	10.138000000000	732.976746618626	1013.962959945681	508.247825449582	902.207790459010	1420.863906227976	284.555616452250	1025.150759211519	1353.504117566196	432.421222033082	971.841955126831	1442.987628448930	609.369936537538	909.436179228945	1490.506294440111	439.027892996395	966.786434339373	934.060593504846	604.546462283405	930.456663571680	955.898350291904	332.781513277516	952.180344923856	720.219662220936	584.565243846500	845.058064030640	630.985409164648	649.954171971236	903.972619675415	560.131265410490	572.762814674602	878.371968908825	469.501060996382	583.757842366269	997.100235200876	761.944965829827	376.432460639944	927.162419237580	633.645867022647	313.476607906441	1019.256493827137	567.622164504032	381.200560146184	1028.067356139334	496.017656762508	388.802136514695	1002.741754148176	422.647103392556	380.417395357711	919.544890617084	305.243892375123	327.081865958026	971.955541410675	194.950936282941	397.520226948298	819.213746363254	395.406902290991	593.224254861864	715.568250940848	323.783269572360	656.266872958347	727.071789528637	216.773598722554	599.542409469105	549.529826170810	86.876751947774	569.126021719061	726.992562745202	103.954798817738	611.745224957006	627.082715257251	59.451447870838	644.623786153382	831.157922468121	36.458405175172	641.086811324594	846.079894103225	38.429663439609	432.887208025437	923.261645709473	36.550967544429	355.308958069037	1005.804757507101	96.496842901502	386.047668189141	1134.880175468434	43.671926319777	361.654960543662	780.793006474416	1089.680873416632	189.793532268830	781.370907353822	828.681164032192	217.013053047739	1150.742435736851	1165.064813389117	731.736327068772	1404.064040346881	1178.532726657663	680.881651898817	
90	10.159000000000	732.941084333288	1014.284216053278	502.369765614274	904.805388915914	1421.774325583977	281.076948596707	1025.993800713811	1353.955909276969	430.145698359539	970.858530111294	1443.072400516138	606.730726591134	910.302343709551	1491.049473791043	435.867899659355	965.734971652189	934.620949892111	600.772043491913	931.990202831136	955.896766597949	328.810189362218	951.798412616075	720.922803084110	582.227237822043	844.501585351632	631.845714566737	647.446346653366	904.614375874569	560.436126711886	571.460726034832	879.148217166350	468.973848545949	583.497444626754	997.527306842404	761.449362795808	373.363580684561	927.216066737057	633.063265568144	310.964219895511	1018.705822485540	566.850678711834	379.269585190346	1027.158704107298	494.960096711329	387.197440906314	1000.857753264814	421.593483454668	379.211504370934	916.522588467913	304.901004424085	326.185106580111	967.261189321594	194.407629502510	397.255161547968	818.581087088990	395.841092110175	592.801036641160	713.339732002589	326.160557643818	655.370831746754	724.107465173688	218.330386743975	599.756691256777	544.693936345400	90.888577936366	569.496539776313	722.485647766636	104.221817314687	612.125130898910	621.694994667382	61.534420959845	644.844928175624	824.988705701903	36.368953803355	641.012676318308	839.774781621728	38.508263598464	432.931025007138	916.942225710357	36.581101409861	355.378551015329	999.610033185538	96.393951890267	386.116579924513	1128.646391965749	43.168502362625	361.643898948886	786.609957257319	1089.945425696916	182.795499441965	790.810768669375	828.882336430451	208.933064885655	1144.406841266440	1160.848650110433	730.645481178561	1399.881391478285	1160.792453516763	688.346081430032	
91	10.180000000000	732.764874594838	1014.368837719097	496.424248219160	907.296885744257	1422.519120397450	277.639630282372	1026.601867757178	1354.298556131890	427.992689304626	969.494798494136	1443.051028700616	604.146784494600	910.934093287113	1491.454093336818	432.701347423575	964.544151037380	935.116804522802	597.041641491288	933.525315402610	955.785979390280	324.908776632855	951.958274037965	721.574235951353	579.902659395384	844.815122948995	632.367601211070	644.954773059485	906.323095345577	560.548885807451	570.138502339512	881.140387806297	468.063948876327	583.349464006025	998.057327205315	760.853391879728	370.348422094778	927.467982655293	632.374784656673	308.530442857241	1018.373152032730	566.025272481634	377.448529188243	1026.482108734991	493.832987832182	385.680800068231	999.162070288665	420.452349990665	378.070560935001	913.642432652502	304.530625624270	325.288807904930	962.612828040925	193.822010767506	397.010352506594	818.992719541004	395.980971792063	592.419545058014	712.032143877893	328.544086121074	654.474235049975	721.761676268895	219.907927985105	599.999769592903	540.214163130430	95.529983503329	569.886302545765	718.218194642240	104.528447410511	612.513162519577	616.483562600551	64.041180064077	645.082384948985	818.762557124633	36.206842719441	640.966943867933	833.478254894289	38.601246789867	432.966561902665	910.634935862718	36.614537151560	355.445912022453	993.424670569072	96.295367534751	386.184682721036	1122.414633517351	42.688142071718	361.641652757458	793.090121738750	1089.755830889143	175.959333303603	801.010325257178	828.686673534714	200.997161755909	1136.740532536270	1156.043651481894	729.820834015954	1393.287764074438	1141.311291559824	696.446489262129	
92	10.201000000000	732.430043737224	1014.177223759974	490.434977507800	909.674173837888	1423.065092385723	274.252116441712	1026.961155356090	1354.503072269963	425.971003717986	967.724211242125	1442.886196879423	601.621714225249	911.315044473375	1491.682237483762	429.537396232207	963.227858679603	935.517239567278	593.362805768888	935.030746551163	955.548853342074	321.083041842447	952.779890302348	722.169515941831	577.551348782958	846.203183574631	632.506997960629	642.487503996974	909.300623880323	560.460833286621	568.764513794196	884.565575588733	466.764570651042	583.286772824138	998.684065442184	760.133910978627	367.364088696355	927.916369258019	631.558813490258	306.167623008552	1018.277075438667	565.133641141230	375.727244883662	1026.068407030429	492.621595093757	384.242742000808	997.676321075628	419.208856779666	376.985198458516	910.912587648719	304.127872746284	324.390820122735	958.014041481720	193.188460193549	396.778671858342	820.656420005270	395.813079496125	592.061613000267	711.858306896685	330.988262539088	653.576446398714	720.178045677369	221.585395260785	600.262665755836	536.233960607976	101.060455832514	570.265960865151	714.270367959440	104.996964147301	612.923000652502	611.523613671877	67.183573390015	645.318219772656	812.471307818163	35.933488295966	640.972429369757	827.193221621878	38.708993527724	432.990544793656	904.343083383111	36.651725848507	355.508689530961	987.248240140840	96.204043733988	386.247343001794	1116.186693587474	42.240387384003	361.645052060736	800.376449187273	1089.070063307955	169.337407310142	812.104377782984	828.055301318872	193.299271870226	1127.654317458058	1150.679211078491	729.207869962769	1383.979108664979	1120.172482604937	704.941350999976	
93	10.222000000000	731.919435259747	1013.665413330102	484.432578803094	911.924042285185	1423.372973796821	270.932671830519	1027.059725165262	1354.530168592570	424.092269937871	965.531013621883	1442.523698246592	599.168801789401	911.435223999698	1491.686536650745	426.401893891997	961.797852341161	935.778129167613	589.743554642699	936.468400064702	955.154291364913	317.337280530683	954.347107100694	722.706212135183	575.136142671330	848.821308003328	632.239010643299	640.053094926881	913.692988921360	560.182971301593	567.308687887565	889.584290462166	465.097527151170	583.267856443268	999.394584314286	759.265196108753	364.389061817848	928.551370655637	630.588619814115	303.863686109125	1018.431085811509	564.158596081441	374.084930816968	1025.941153001522	491.306280912011	382.864819500173	996.417645903814	417.843070913369	375.940465661483	908.335401618309	303.682589540294	323.486524136449	953.469772780869	192.498581210328	396.548838263022	823.735661383542	395.345467977017	591.699385730427	712.996625634933	333.556426347273	652.664543413121	719.481808335596	223.457137361207	600.519764133045	532.913065319233	107.726083212403	570.576836654733	710.727714830394	105.782781540174	613.359555505196	606.904494147314	71.184115140690	645.512936133933	806.116712484846	35.522304903515	641.049835124170	820.920354843053	38.830396852208	432.999988151392	898.067227512696	36.690847681148	355.563495181140	981.078765786867	96.119421988648	386.299374861779	1109.962855800172	41.830060482828	361.649929316127	808.587311992254	1087.864116209098	162.982668729398	824.224871454470	826.969181103179	185.938546971695	1117.081392322912	1144.786417585728	728.741392046457	1371.693124118841	1097.519626012776	713.572200000993	
